<svg height="1024" width="1024" xmlns="http://www.w3.org/2000/svg">
  <style type="text/css" id="current-color-scheme">
    .background {
      color: #008888;
      fill: currentColor;
      stroke: none;
    }
    <!-- Font from the free aenigma fonts package (font: Entangled Plain BRK) and path-exported using Inkscape -->
    .text {
      color: #ccc;
      stroke: none;
      fill: currentColor;
    }
    .shadow {
      stop-color: #333;
    }
  </style>
  <rect x="0" y="0" width="1024" height="1024" rx="256" ry="256" class="background" />
  <!--<g title="letters" class="text">
    <text x="200" y="450">aLt</text>
    <text x="100" y="850">CaSe</text>
  </g>-->
  <!--<linearGradient id="shadowGradient" x1="0%" y1="0%" x2="100%" y2="100%" class="shadow">
    <stop offset="0%" style="stop-opacity:0.5;" />
    <stop offset="100%" style="stop-opacity:0;" />
  </linearGradient>
      <g title="letter shadow">
    <path fill="url(#shadowGradient)" d="
          M 165 700
          l 150 75
          l 150 -50
          l 22 -150
          l 300 400
          h -435
          l -150 -200
          z" />
  </g>-->

  <g title="letters2" class="text">
    <path
      d="m 485.8,640.6 v 125.6 q 0,17.6 -12,29.6 -12,12 -30.4,12 -24.8,0 -36.8,-22.4 -18.4,10.4 -40.8,16 -21.6,6.4 -48,6.4 -84,0 -130.4,-57.6 -38.4,-48 -38.4,-109.6 0,-62.4 37.6,-109.6 47.2,-59.2 131.2,-59.2 84,0 130.4,58.4 37.6,47.2 37.6,110.4 z m -84,0 q 0,-29.6 -12.8,-49.6 -21.6,-35.2 -71.2,-35.2 -39.2,0 -62.4,23.2 -22.4,22.4 -22.4,60.8 0,29.6 12.8,49.6 21.6,35.2 72,35.2 48.8,0 70.4,-34.4 13.6,-23.2 13.6,-49.6 z"
      title="a" />
    <path
      d="m 786.60072,387.8 q 0,-29.6 -12.8,-49.6 -20,-34.4 -71.2,-34.4 -49.6,0 -71.2,34.4 -13.6,23.2 -13.6,49.6 v 252 q 0,29.6 12.8,49.6 21.6,35.2 72,35.2 38.4,0 60.8,-22.4 23.2,-23.2 23.2,-62.4 0,-16.8 12,-28.8 12.8,-12.8 29.6,-12.8 18.4,0 30.4,12 12,12 12,30.4 0,59.2 -37.6,108.8 -46.4,58.4 -130.4,58.4 -84,0 -130.4,-57.6 -38.4,-48 -38.4,-109.6 V 387.8 q 0,-62.4 37.6,-109.6 47.2,-59.2 131.2,-59.2 84,0 130.4,58.4 37.6,47.2 37.6,110.4 0,17.6 -12,29.6 -12,12 -30.4,12 -17.6,0 -29.6,-12 -12,-12 -12,-29.6 z"
      title="C" />
  </g>

</svg>
